<?xml version="1.0" encoding="iso-8859-1"?>
<!-- Uploaded to: SVG Repo, www.svgrepo.com, Generator: SVG Repo Mixer Tools -->
<svg fill="white" height="800px" width="800px" version="1.1" id="Layer_1" xmlns="http://www.w3.org/2000/svg" xmlns:xlink="http://www.w3.org/1999/xlink" 
	 viewBox="0 0 508 508" xml:space="preserve">
<g>
	<g>
		<path d="M208.5,175.825H75.6c-7.8,0-14.1,6.3-14.1,14.1c0,7.8,6.3,14.1,14.1,14.1h132.8c7.8,0,14.1-6.3,14.1-14.1
			C222.6,182.125,216.3,175.825,208.5,175.825z"/>
	</g>
</g>
<g>
	<g>
		<path d="M92.1,271.125H75.6c-7.8,0-14.1,6.3-14.1,14.1c0,7.8,6.3,14.1,14.1,14.1h16.5c7.8,0,14.1-6.3,14.1-14.1
			C106.2,277.525,99.9,271.125,92.1,271.125z"/>
	</g>
</g>
<g>
	<g>
		<path d="M169,271.125h-16.5c-7.8,0-14.1,6.3-14.1,14.1c0,7.8,6.3,14.1,14.1,14.1H169c7.8,0,14.1-6.3,14.1-14.1
			C183.1,277.525,176.8,271.125,169,271.125z"/>
	</g>
</g>
<g>
	<g>
		<path d="M501.1,250.525l-25.7-15.2v-193c-0.1-23.3-19-42.3-42.4-42.3H42.3c-23.3,0-42.3,19-42.3,42.3v271.1
			c0,23.3,19,42.3,42.3,42.3h187.4c16.2,67.7,64,124.3,130.8,151.2c3.5,1.4,7,1.4,10.5,0c83.2-33.4,137-112.9,137-202.6v-41.7
			C508,257.725,505.4,253.025,501.1,250.525z M28.2,42.325c0-7.8,6.3-14.1,14.1-14.1H433c7.8,0,14.1,6.3,14.1,14.1v47.7H28.2V42.325
			z M223.6,262.725v41.7c0,7.8,0.6,15.5,1.4,23.2H42.3c-7.8,0-14.1-6.3-14.1-14.1v-195.2h418.9v100.3l-74.1-43.8
			c-4.4-2.6-9.9-2.6-14.4,0l-128.1,75.7C226.2,253.025,223.6,257.725,223.6,262.725z M365.8,478.625c-43.5-19-77.3-52.7-96.4-94
			h17.9c7.8,0,14.1-6.3,14.1-14.1c0-7.8-6.3-14.1-14.1-14.1H259c-2.6-9.2-4.5-18.6-5.7-28.2h69.2c7.8,0,14.1-6.3,14.1-14.1
			c0-7.8-6.3-14.1-14.1-14.1h-70.8v-29.3l114-67.4l114,67.4v33.7h0.1C479.8,380.625,435.2,448.325,365.8,478.625z"/>
	</g>
</g>
</svg>